<svg width="42" height="30" viewBox="0 0 42 30" fill="none" xmlns="http://www.w3.org/2000/svg">
<path d="M39.7679 6.82971V3.52357C39.7679 2.06292 38.5655 0.878662 37.0826 0.878662H3.51607C2.0331 0.878662 0.83075 2.06292 0.83075 3.52357V6.82971H39.7679Z" fill="#1E9664"/>
<path d="M23.231 9.47462H0.83075V24.6829C0.83075 26.1435 2.0331 27.3278 3.51607 27.3278H21.1546C19.3628 25.1642 18.2853 22.4036 18.2853 19.393C18.2853 15.3562 20.2268 11.7737 23.231 9.47462ZM3.51607 18.7318H12.2434V20.7155H3.51607V18.7318ZM15.6 24.6829H3.51607V22.6992H15.6V24.6829Z" fill="#1E9664"/>
<path d="M31.0406 9.47462C25.4793 9.47462 20.9706 13.9154 20.9706 19.393C20.9706 24.8706 25.4793 29.3115 31.0406 29.3115C36.6019 29.3115 41.1105 24.8706 41.1105 19.393C41.1105 13.9154 36.6019 9.47462 31.0406 9.47462ZM30.3693 24.5691L25.392 19.6668L27.2905 17.7968L30.3693 20.8292L35.462 15.8132L37.3605 17.6831L30.3693 24.5691Z" fill="#1E9664"/>
</svg>
