<svg width="33" height="33" viewBox="0 0 33 33" fill="none" xmlns="http://www.w3.org/2000/svg">
<path d="M25.7093 0H7.2907C3.26416 0 0 3.26416 0 7.2907V25.7093C0 29.7358 3.26416 33 7.2907 33H25.7093C29.7358 33 33 29.7358 33 25.7093V7.2907C33 3.26416 29.7358 0 25.7093 0Z" fill="#1E9664"/>
<path d="M14.454 22.1284C14.2523 22.1291 14.0526 22.0897 13.8663 22.0125C13.68 21.9353 13.5109 21.8219 13.3688 21.6787L9.2753 17.5852C9.12871 17.4436 9.01177 17.2742 8.93133 17.0869C8.85089 16.8997 8.80855 16.6983 8.80678 16.4945C8.80501 16.2907 8.84384 16.0886 8.92102 15.8999C8.99819 15.7113 9.11216 15.5399 9.25628 15.3958C9.40039 15.2517 9.57176 15.1377 9.7604 15.0606C9.94903 14.9834 10.1511 14.9445 10.3549 14.9463C10.5587 14.9481 10.7601 14.9904 10.9474 15.0709C11.1347 15.1513 11.304 15.2682 11.4456 15.4148L14.454 18.4217L21.5544 11.3213C21.8424 11.0335 22.2329 10.8719 22.6401 10.872C23.0472 10.8722 23.4377 11.0341 23.7255 11.3221C24.0133 11.6101 24.1749 12.0006 24.1747 12.4078C24.1746 12.8149 24.0127 13.2054 23.7247 13.4932L15.5392 21.6787C15.3971 21.8219 15.228 21.9353 15.0417 22.0125C14.8554 22.0897 14.6557 22.1291 14.454 22.1284Z" fill="white"/>
</svg>
