<svg width="209" height="58" viewBox="0 0 209 58" fill="none" xmlns="http://www.w3.org/2000/svg">
<path d="M189.475 45.0631C189.132 45.3172 188.725 45.5077 188.255 45.6307C187.784 45.7537 187.281 45.8151 186.744 45.8151C186.207 45.8151 185.72 45.725 185.281 45.5467C184.841 45.3684 184.465 45.1225 184.152 44.809C183.838 44.4954 183.596 44.1265 183.429 43.7024C183.26 43.2782 183.175 42.8191 183.175 42.3273C183.175 41.8355 183.262 41.3683 183.435 40.942C183.609 40.5137 183.846 40.1449 184.147 39.8313C184.449 39.5178 184.804 39.2719 185.208 39.0936C185.613 38.9153 186.046 38.8251 186.507 38.8251C186.998 38.8251 187.448 38.9133 187.854 39.0874C188.263 39.2616 188.614 39.5014 188.909 39.8047C189.204 40.108 189.433 40.4666 189.594 40.8744C189.757 41.2842 189.838 41.7228 189.838 42.1941V42.5568H184.193C184.216 42.897 184.288 43.2105 184.412 43.4954C184.535 43.7823 184.711 44.0261 184.936 44.2311C185.161 44.4339 185.435 44.5917 185.757 44.7044C186.079 44.8171 186.453 44.8725 186.876 44.8725C187.345 44.8725 187.803 44.8069 188.249 44.6778C188.694 44.5487 189.103 44.3335 189.473 44.0343V45.0672L189.475 45.0631ZM185.652 39.9297C185.392 40.0362 185.165 40.1817 184.967 40.3662C184.769 40.5506 184.61 40.7617 184.488 41.0014C184.366 41.2412 184.29 41.4933 184.259 41.7556H188.76C188.742 41.4871 188.678 41.233 188.569 40.9932C188.457 40.7535 188.306 40.5424 188.112 40.358C187.918 40.1756 187.687 40.0301 187.419 39.9256C187.151 39.8211 186.847 39.7678 186.511 39.7678C186.199 39.7678 185.914 39.8211 185.656 39.9297H185.652Z" fill="#F1F6EB"/>
<path d="M191.51 38.9501L193.828 44.3192L196.22 38.9501H197.254L192.874 48.9157L191.995 48.5058L193.326 45.4729L190.447 38.9501H191.51Z" fill="#F1F6EB"/>
<path d="M204.164 45.0631C203.821 45.3172 203.415 45.5078 202.944 45.6307C202.474 45.7537 201.97 45.8151 201.433 45.8151C200.897 45.8151 200.41 45.725 199.97 45.5467C199.53 45.3684 199.155 45.1225 198.841 44.809C198.527 44.4954 198.286 44.1266 198.119 43.7024C197.949 43.2782 197.865 42.8191 197.865 42.3273C197.865 41.8355 197.951 41.3683 198.125 40.942C198.298 40.5137 198.536 40.1449 198.837 39.8313C199.138 39.5178 199.493 39.2719 199.898 39.0936C200.302 38.9153 200.736 38.8252 201.196 38.8252C201.687 38.8252 202.137 38.9133 202.544 39.0875C202.952 39.2616 203.303 39.5014 203.599 39.8047C203.894 40.108 204.123 40.4666 204.284 40.8744C204.447 41.2843 204.527 41.7228 204.527 42.1941V42.5568H198.884C198.907 42.897 198.979 43.2105 199.103 43.4954C199.227 43.7823 199.4 44.0261 199.627 44.2311C199.852 44.4339 200.127 44.5917 200.449 44.7045C200.771 44.8172 201.144 44.8725 201.568 44.8725C202.036 44.8725 202.494 44.8069 202.94 44.6778C203.386 44.5487 203.795 44.3335 204.164 44.0343V45.0672V45.0631ZM200.342 39.9297C200.084 40.0363 199.854 40.1818 199.656 40.3662C199.458 40.5506 199.297 40.7617 199.175 41.0015C199.054 41.2412 198.977 41.4933 198.946 41.7556H203.448C203.429 41.4871 203.365 41.233 203.256 40.9933C203.147 40.7535 202.994 40.5424 202.8 40.358C202.606 40.1756 202.375 40.0301 202.108 39.9256C201.84 39.8211 201.537 39.7678 201.198 39.7678C200.886 39.7678 200.602 39.8211 200.344 39.9297H200.342Z" fill="#F1F6EB"/>
<path d="M188.895 57.4897C188.597 57.6742 188.292 57.8033 187.978 57.8832C187.665 57.9631 187.316 58 186.928 58C186.36 58 185.844 57.9078 185.384 57.7254C184.921 57.541 184.527 57.293 184.201 56.9774C183.875 56.6618 183.623 56.2909 183.444 55.8667C183.266 55.4425 183.175 54.9897 183.175 54.5122C183.175 54.0347 183.268 53.5613 183.452 53.1371C183.636 52.7129 183.892 52.342 184.216 52.0264C184.54 51.7108 184.921 51.4629 185.361 51.2805C185.801 51.1002 186.277 51.008 186.791 51.008C187.13 51.008 187.45 51.0448 187.751 51.1186C188.053 51.1924 188.339 51.3051 188.61 51.4567L188.907 52.5715C188.732 52.4588 188.56 52.3646 188.393 52.2867C188.226 52.2088 188.057 52.1453 187.885 52.0982C187.714 52.051 187.541 52.0162 187.361 51.9936C187.184 51.9711 186.994 51.9609 186.789 51.9609C186.424 51.9609 186.081 52.0264 185.761 52.1555C185.442 52.2846 185.165 52.465 184.93 52.6965C184.694 52.9261 184.511 53.1986 184.374 53.508C184.238 53.8195 184.172 54.1556 184.172 54.5183C184.172 54.881 184.236 55.1946 184.364 55.502C184.492 55.8093 184.676 56.0778 184.911 56.3073C185.148 56.5389 185.435 56.7192 185.776 56.8504C186.117 56.9815 186.498 57.0492 186.921 57.0492C187.291 57.0492 187.631 57.0041 187.945 56.9159C188.259 56.8258 188.573 56.6741 188.888 56.459V57.4918L188.895 57.4897Z" fill="#F1F6EB"/>
<path d="M194.814 56.9385C194.692 57.1352 194.556 57.2992 194.401 57.4324C194.249 57.5635 194.079 57.6701 193.898 57.752C193.716 57.832 193.522 57.8893 193.32 57.9201C193.118 57.9508 192.905 57.9672 192.684 57.9672C192.333 57.9672 192.009 57.916 191.714 57.8135C191.419 57.7111 191.165 57.5676 190.952 57.3832C190.74 57.1987 190.575 56.9815 190.455 56.7254C190.335 56.4713 190.275 56.1926 190.275 55.8934C190.275 55.5942 190.327 55.3401 190.43 55.1085C190.533 54.8749 190.684 54.6741 190.882 54.504C191.08 54.3339 191.324 54.1986 191.613 54.0982C191.902 53.9978 192.23 53.9363 192.6 53.9138L194.864 53.7519V53.5367C194.864 53.2539 194.822 53.008 194.738 52.799C194.655 52.5879 194.533 52.4137 194.377 52.2744C194.218 52.135 194.026 52.0326 193.799 51.9629C193.572 51.8932 193.312 51.8584 193.018 51.8584C192.618 51.8584 192.236 51.9137 191.873 52.0264C191.51 52.1391 191.151 52.3195 190.796 52.5695V51.5961C191.146 51.3686 191.506 51.1985 191.871 51.0858C192.236 50.9752 192.628 50.9178 193.047 50.9178C193.466 50.9178 193.836 50.969 194.178 51.0715C194.521 51.1739 194.82 51.3379 195.07 51.5613C195.32 51.7846 195.516 52.0715 195.654 52.4199C195.793 52.7683 195.863 53.1945 195.863 53.6945V57.8484H195.052L194.808 56.9364L194.814 56.9385ZM193.656 56.9344C193.91 56.8688 194.129 56.7664 194.308 56.625C194.488 56.4836 194.626 56.3053 194.723 56.0881C194.82 55.8708 194.868 55.6106 194.868 55.3052V54.6146L192.651 54.7683C192.43 54.7827 192.234 54.8155 192.067 54.8687C191.898 54.922 191.755 54.9978 191.638 55.0942C191.52 55.1905 191.433 55.3052 191.374 55.4405C191.316 55.5757 191.285 55.7253 191.285 55.8893C191.285 56.0532 191.32 56.2069 191.386 56.3463C191.454 56.4856 191.551 56.6045 191.679 56.7049C191.807 56.8053 191.966 56.8852 192.156 56.9426C192.346 57 192.558 57.0307 192.798 57.0307C193.113 57.0307 193.398 56.9979 193.652 56.9344H193.656Z" fill="#F1F6EB"/>
<path d="M201.824 52.1801C201.687 52.1186 201.549 52.0695 201.409 52.0367C201.266 52.0039 201.109 51.9854 200.938 51.9854C200.591 51.9854 200.296 52.0428 200.055 52.1596C199.813 52.2764 199.617 52.4424 199.466 52.6596C199.316 52.8769 199.206 53.1412 199.138 53.4548C199.07 53.7683 199.037 54.1228 199.037 54.5224V57.8504H198.042V51.133H198.895L199.144 52.2949C199.229 52.1391 199.324 51.9854 199.429 51.8379C199.532 51.6903 199.654 51.5592 199.797 51.4424C199.939 51.3256 200.106 51.2313 200.3 51.1596C200.494 51.0879 200.721 51.053 200.983 51.053C201.087 51.053 201.184 51.0592 201.274 51.0694C201.365 51.0797 201.446 51.0961 201.518 51.1125L201.821 52.1801H201.824Z" fill="#F1F6EB"/>
<path d="M208.637 57.2479C208.294 57.502 207.888 57.6926 207.417 57.8156C206.946 57.9385 206.443 58 205.906 58C205.369 58 204.882 57.9098 204.443 57.7316C204.003 57.5533 203.627 57.3074 203.314 56.9938C203 56.6803 202.758 56.3114 202.591 55.8872C202.422 55.463 202.337 55.004 202.337 54.5122C202.337 54.0204 202.424 53.5531 202.598 53.1269C202.771 52.7006 203.008 52.3297 203.31 52.0162C203.611 51.7026 203.966 51.4567 204.37 51.2785C204.775 51.1002 205.208 51.01 205.669 51.01C206.16 51.01 206.61 51.0981 207.017 51.2723C207.425 51.4465 207.776 51.6863 208.071 51.9895C208.366 52.2928 208.595 52.6515 208.756 53.0593C208.92 53.4691 209 53.9076 209 54.379V54.7417H203.355C203.378 55.0819 203.45 55.3954 203.574 55.6802C203.698 55.9671 203.873 56.211 204.098 56.4159C204.323 56.6188 204.598 56.7766 204.919 56.8893C205.241 57.002 205.615 57.0573 206.038 57.0573C206.507 57.0573 206.965 56.9918 207.411 56.8627C207.857 56.7336 208.265 56.5184 208.635 56.2192V57.252L208.637 57.2479ZM204.816 52.1125C204.556 52.2191 204.329 52.3646 204.131 52.549C203.933 52.7314 203.774 52.9445 203.652 53.1822C203.53 53.422 203.454 53.674 203.423 53.9363H207.925C207.906 53.6679 207.842 53.4138 207.733 53.174C207.621 52.9342 207.471 52.7232 207.277 52.5387C207.083 52.3564 206.851 52.2109 206.583 52.1064C206.315 52.0018 206.011 51.9486 205.675 51.9486C205.363 51.9486 205.078 52.0018 204.82 52.1104L204.816 52.1125Z" fill="#F1F6EB"/>
<path d="M1.60785 30.1343C2.67906 27.6977 4.15895 25.5808 6.04544 23.7836C7.93193 21.9885 10.1404 20.5765 12.6729 19.5499C15.2054 18.5232 17.9444 18.0109 20.8897 18.0109C23.835 18.0109 26.5801 18.5252 29.1271 19.5499C31.672 20.5765 33.8825 21.9885 35.7546 23.7836C37.6287 25.5788 39.1086 27.6957 40.1922 30.1343C41.2778 32.5729 41.8206 35.2021 41.8206 38.0239C41.8206 40.8457 41.2778 43.4769 40.1922 45.9135C39.1065 48.3521 37.6266 50.4608 35.7546 52.2436C33.8805 54.0265 31.672 55.4323 29.1271 56.4569C26.5822 57.4836 23.835 57.9959 20.8897 57.9959C17.9444 57.9959 15.2034 57.4815 12.6729 56.4569C10.1404 55.4302 7.92986 54.0265 6.04544 52.2436C4.15895 50.4608 2.67906 48.3501 1.60785 45.9135C0.534574 43.4769 0 40.8457 0 38.0239C0 35.2021 0.536638 32.5729 1.60785 30.1343ZM8.81945 43.0282C9.50469 44.5671 10.4417 45.9012 11.6306 47.0303C12.8195 48.1595 14.2085 49.0448 15.7978 49.6862C17.3871 50.3276 19.0858 50.6473 20.8959 50.6473C22.706 50.6473 24.4109 50.3276 26.0125 49.6862C27.6142 49.0448 29.0094 48.1595 30.1983 47.0303C31.3872 45.9012 32.3242 44.5671 33.0095 43.0282C33.6947 41.4892 34.0373 39.8211 34.0373 38.0259C34.0373 36.2308 33.6947 34.5627 33.0095 33.0217C32.3242 31.4827 31.3872 30.1425 30.1983 29.001C29.0094 27.8596 27.6142 26.9682 26.0125 26.3267C24.4109 25.6853 22.7039 25.3636 20.8959 25.3636C19.0878 25.3636 17.3871 25.6853 15.7978 26.3267C14.2085 26.9682 12.8195 27.8596 11.6306 29.001C10.4417 30.1425 9.50469 31.4827 8.81945 33.0217C8.1342 34.5606 7.79158 36.2287 7.79158 38.0259C7.79158 39.8231 8.1342 41.4892 8.81945 43.0282Z" fill="#F1F6EB"/>
<path d="M72.989 26.71C72.1614 26.2735 71.2965 25.9394 70.3925 25.7099C69.4885 25.4784 68.5452 25.3636 67.5628 25.3636C65.7279 25.3636 64.2232 25.6525 63.0468 26.2304C61.8703 26.8083 60.9477 27.6424 60.2748 28.7326C59.602 29.8228 59.1375 31.1507 58.8795 32.7163C58.6216 34.2819 58.4915 36.0525 58.4915 38.028V57.1557H50.6999V18.6277H57.2511L59.3832 22.9762C60.0292 22.1811 60.6567 21.4823 61.2635 20.8778C61.8703 20.2733 62.5101 19.7753 63.183 19.3777C63.8538 18.9802 64.5782 18.6789 65.3543 18.474C66.1304 18.2691 66.9952 18.1666 67.9508 18.1666C68.442 18.1666 68.9064 18.1851 69.3461 18.224C69.7857 18.2629 70.2109 18.3326 70.6257 18.4351L72.9911 26.71H72.989Z" fill="#F1F6EB"/>
<path d="M80.9746 4.1619e-06L88.7662 3.65587V22.8594C89.5422 21.9352 90.4009 21.1524 91.3441 20.511C92.2874 19.8695 93.2884 19.3511 94.3472 18.9515C95.406 18.5539 96.5185 18.2588 97.6806 18.0662C98.8426 17.8736 100.046 17.7773 101.286 17.7773C104.128 17.7773 106.746 18.2916 109.136 19.3163C111.526 20.3429 113.588 21.7549 115.319 23.55C117.051 25.3452 118.407 27.462 119.39 29.9006C120.372 32.3392 120.863 34.9684 120.863 37.7903C120.863 40.6121 120.372 43.2044 119.39 45.6409C118.407 48.0796 117.045 50.2005 115.301 52.01C113.557 53.8195 111.489 55.2376 109.099 56.2622C106.708 57.2889 104.104 57.8012 101.288 57.8012C100.048 57.8012 98.8653 57.7049 97.7425 57.5123C96.6197 57.3196 95.5526 57.0245 94.5454 56.627C93.5381 56.2294 92.5804 55.7028 91.6764 55.0491C90.7724 54.3953 89.9323 53.6064 89.1563 52.6822V57.1475H80.9767V4.1619e-06H80.9746ZM89.6393 43.1245C90.2213 44.7024 91.0469 46.0364 92.1202 47.1266C93.1914 48.2169 94.4711 49.0448 95.9571 49.6083C97.4432 50.1739 99.0903 50.4546 100.898 50.4546C102.706 50.4546 104.362 50.1349 105.86 49.4915C107.359 48.8501 108.638 47.9648 109.697 46.8357C110.756 45.7065 111.584 44.3663 112.178 42.813C112.772 41.2617 113.07 39.5752 113.07 37.7513C113.07 35.9275 112.772 34.2881 112.178 32.7491C111.584 31.2101 110.756 29.876 109.697 28.7469C108.636 27.6178 107.359 26.7325 105.86 26.0911C104.362 25.4497 102.706 25.1279 100.898 25.1279C99.0903 25.1279 97.4411 25.4107 95.9571 25.9743C94.4711 26.5399 93.1914 27.3596 92.1202 28.4375C91.0469 29.5154 90.2213 30.8371 89.6393 32.4007C89.0572 33.9664 88.7662 35.7492 88.7662 37.7493C88.7662 39.7493 89.0572 41.5404 89.6393 43.1183V43.1245Z" fill="#F1F6EB"/>
<path d="M137.955 18.6277V57.1516H130.164V18.6277H137.955Z" fill="#F1F6EB"/>
<path d="M149.159 46.4914C151.097 48.0304 153.035 49.1083 154.973 49.7251C156.911 50.3399 158.952 50.6493 161.097 50.6493C162.517 50.6493 163.745 50.5346 164.779 50.303C165.813 50.0714 166.665 49.7517 167.338 49.3398C168.009 48.93 168.507 48.4484 168.831 47.8972C169.153 47.3459 169.316 46.7496 169.316 46.1082C169.316 44.9032 168.882 43.9134 168.017 43.145C167.15 42.3744 165.788 41.7597 163.929 41.2986L160.48 40.4522C158.62 39.9912 156.998 39.4256 155.615 38.7596C154.232 38.0936 153.082 37.3107 152.166 36.4111C151.247 35.5135 150.558 34.493 150.092 33.3516C149.627 32.2102 149.394 30.9458 149.394 29.5605C149.394 27.9703 149.716 26.4763 150.364 25.0767C151.01 23.6791 151.953 22.4537 153.194 21.4003C154.434 20.3491 155.96 19.515 157.768 18.8982C159.576 18.2834 161.644 17.974 163.97 17.974C165.83 17.974 167.522 18.1277 169.047 18.4351C170.573 18.7425 172.032 19.3327 173.427 20.2056L175.714 28.3637C174.086 27.21 172.393 26.4149 170.637 25.9784C168.878 25.5419 166.979 25.3247 164.938 25.3247C163.619 25.3247 162.469 25.421 161.489 25.6136C160.506 25.8062 159.699 26.0829 159.066 26.4415C158.432 26.8001 157.962 27.2571 157.652 27.8084C157.342 28.3596 157.188 28.9949 157.188 29.7142C157.188 30.6117 157.503 31.3372 158.137 31.8884C158.771 32.4397 159.745 32.87 161.064 33.1774L165.753 34.2942C167.691 34.7553 169.371 35.3476 170.791 36.0648C172.211 36.7841 173.388 37.6243 174.319 38.5854C175.25 39.5485 175.947 40.6387 176.412 41.856C176.876 43.0753 177.109 44.4032 177.109 45.8397C177.109 47.5324 176.76 49.1247 176.063 50.6124C175.365 52.1002 174.364 53.3892 173.06 54.4794C171.755 55.5696 170.158 56.4303 168.273 57.0573C166.387 57.6865 164.255 58 161.877 58C159.369 58 157.076 57.7623 154.998 57.2889C152.917 56.8135 150.973 55.961 149.165 54.7294V46.4934L149.159 46.4914Z" fill="#F1F6EB"/>
<path d="M30.9599 12.3754C30.5657 12.6193 30.1611 12.7914 29.7463 12.8959C29.3314 13.0005 28.867 13.0517 28.3531 13.0517C27.6018 13.0517 26.9186 12.9308 26.3077 12.6869C25.6967 12.4431 25.1725 12.1131 24.7411 11.6951C24.3077 11.277 23.9733 10.7873 23.738 10.2237C23.5027 9.66017 23.3851 9.06179 23.3851 8.42857C23.3851 7.79535 23.5068 7.17033 23.7524 6.60679C23.9981 6.04324 24.3345 5.55347 24.7638 5.13542C25.1931 4.71737 25.6988 4.38949 26.2808 4.14768C26.8629 3.90792 27.4945 3.78701 28.1756 3.78701C28.6235 3.78701 29.0466 3.8362 29.447 3.93456C29.8474 4.03292 30.2251 4.18252 30.5843 4.38335L30.9785 5.85881C30.7453 5.71126 30.5182 5.58421 30.2974 5.48175C30.0765 5.37723 29.8536 5.29526 29.6266 5.23379C29.3995 5.17231 29.1684 5.12518 28.9331 5.09649C28.6978 5.0678 28.446 5.0514 28.1756 5.0514C27.6926 5.0514 27.2385 5.13747 26.8154 5.30961C26.3923 5.48175 26.0249 5.71946 25.7132 6.0248C25.4036 6.33014 25.158 6.68875 24.9785 7.10065C24.7989 7.51255 24.7101 7.95929 24.7101 8.43882C24.7101 8.91834 24.7948 9.33639 24.9661 9.74214C25.1353 10.1479 25.3789 10.5045 25.6905 10.8098C26.0043 11.1151 26.3861 11.3549 26.8361 11.5291C27.286 11.7033 27.7917 11.7914 28.3531 11.7914C28.8422 11.7914 29.2943 11.732 29.7091 11.6131C30.124 11.4942 30.5409 11.2934 30.9578 11.0086V12.3775L30.9599 12.3754Z" fill="#F1F6EB"/>
<path d="M33.2076 0L34.5244 0.276649V12.857H33.2076V0Z" fill="#F1F6EB"/>
<path d="M38.8402 3.95711V12.855H37.5234V3.95711H38.8402ZM39.7876 0H41.3108L38.9558 2.75624L38.0972 2.30336L39.7897 0H39.7876Z" fill="#F1F6EB"/>
<path d="M41.8557 12.857V3.9571H42.9847L43.315 5.4674C43.4471 5.25428 43.5977 5.04731 43.767 4.84443C43.9362 4.64155 44.1344 4.46327 44.3573 4.30753C44.5802 4.14973 44.8423 4.02473 45.1416 3.93046C45.4409 3.8362 45.7897 3.78907 46.1901 3.78907C46.7804 3.78907 47.2882 3.88743 47.7133 4.08621C48.1365 4.28498 48.4853 4.56368 48.7557 4.9223C49.0281 5.28092 49.2263 5.70716 49.3522 6.20308C49.4781 6.699 49.54 7.23796 49.54 7.82609V12.857H48.2335V7.78101C48.2335 7.35476 48.1881 6.97155 48.0993 6.63343C48.0106 6.2953 47.8702 6.01045 47.6824 5.77889C47.4946 5.54732 47.2531 5.36904 46.9621 5.24198C46.669 5.11493 46.3202 5.0514 45.9135 5.0514C45.5069 5.0514 45.1086 5.11288 44.7722 5.23789C44.4357 5.36289 44.1488 5.56167 43.9135 5.83422C43.6782 6.10677 43.4966 6.45719 43.3666 6.88753C43.2386 7.31788 43.1746 7.83634 43.1746 8.44701V12.857H41.8557Z" fill="#F1F6EB"/>
<path d="M52.3326 0.555347C52.38 0.444688 52.442 0.350422 52.5204 0.266403C52.5988 0.182383 52.6917 0.118857 52.8032 0.0717238C52.9125 0.024591 53.0323 0 53.1561 0C53.2799 0 53.3996 0.024591 53.509 0.0717238C53.6184 0.118857 53.7154 0.186482 53.8001 0.272551C53.8826 0.358619 53.9487 0.456983 53.9961 0.565594C54.0436 0.674204 54.0684 0.79306 54.0684 0.916016C54.0684 1.03897 54.0436 1.16602 53.9961 1.27668C53.9487 1.38734 53.8826 1.48161 53.8001 1.56563C53.7154 1.64965 53.6184 1.71317 53.509 1.75621C53.3996 1.79924 53.2799 1.82383 53.1561 1.82383C53.0323 1.82383 52.9125 1.80129 52.8032 1.75621C52.6917 1.71113 52.5988 1.6476 52.5204 1.56563C52.442 1.48161 52.38 1.38529 52.3326 1.27259C52.2851 1.15988 52.2603 1.03897 52.2603 0.907819C52.2603 0.776666 52.2851 0.666007 52.3326 0.557397V0.555347ZM53.8186 3.95711V12.855H52.4936V3.95711H53.8186Z" fill="#F1F6EB"/>
<path d="M63.7485 12.3754C63.3543 12.6193 62.9498 12.7914 62.5349 12.8959C62.12 13.0005 61.6556 13.0517 61.1417 13.0517C60.3904 13.0517 59.7072 12.9308 59.0963 12.6869C58.4853 12.4431 57.9611 12.1131 57.5297 11.6951C57.0963 11.277 56.7619 10.7873 56.5266 10.2237C56.2913 9.66017 56.1737 9.06179 56.1737 8.42857C56.1737 7.79535 56.2954 7.17033 56.541 6.60679C56.7867 6.04324 57.1231 5.55347 57.5524 5.13542C57.9817 4.71737 58.4874 4.38949 59.0694 4.14768C59.6515 3.90792 60.2831 3.78701 60.9642 3.78701C61.4121 3.78701 61.8352 3.8362 62.2356 3.93456C62.636 4.03292 63.0137 4.18252 63.3729 4.38335L63.7671 5.85881C63.5339 5.71126 63.3068 5.58421 63.086 5.48175C62.8651 5.37723 62.6422 5.29526 62.4152 5.23379C62.1881 5.17231 61.957 5.12518 61.7217 5.09649C61.4864 5.0678 61.2346 5.0514 60.9642 5.0514C60.4812 5.0514 60.0271 5.13747 59.604 5.30961C59.1809 5.48175 58.8135 5.71946 58.5018 6.0248C58.1922 6.33014 57.9466 6.68875 57.7671 7.10065C57.5875 7.51255 57.4987 7.95929 57.4987 8.43882C57.4987 8.91834 57.5834 9.33639 57.7547 9.74214C57.9239 10.1479 58.1675 10.5045 58.4791 10.8098C58.7929 11.1151 59.1747 11.3549 59.6247 11.5291C60.0746 11.7033 60.5803 11.7914 61.1417 11.7914C61.6309 11.7914 62.0829 11.732 62.4977 11.6131C62.9126 11.4942 63.3295 11.2934 63.7465 11.0086V12.3775L63.7485 12.3754Z" fill="#F1F6EB"/>
<path d="M71.5938 11.6459C71.4328 11.9061 71.2511 12.1254 71.0468 12.2996C70.8445 12.4738 70.6216 12.6152 70.3801 12.7218C70.1386 12.8283 69.8827 12.9021 69.6144 12.9431C69.3461 12.9841 69.0654 13.0045 68.7723 13.0045C68.3058 13.0045 67.8786 12.9369 67.4864 12.7996C67.0963 12.6644 66.7599 12.4738 66.4792 12.2299C66.1985 11.9861 65.9797 11.6971 65.8208 11.359C65.6618 11.0209 65.5834 10.6541 65.5834 10.2565C65.5834 9.85895 65.6515 9.52492 65.7898 9.21548C65.9281 8.90809 66.1262 8.64169 66.3904 8.41627C66.6526 8.19085 66.9745 8.01257 67.3584 7.87937C67.7403 7.74617 68.1758 7.6642 68.6649 7.63551L71.6639 7.42239V7.13754C71.6639 6.76458 71.6082 6.43874 71.4988 6.16005C71.3874 5.88135 71.2284 5.64978 71.02 5.4674C70.8115 5.28297 70.5556 5.14567 70.2542 5.05345C69.9529 4.96123 69.6082 4.91615 69.2202 4.91615C68.6897 4.91615 68.182 4.98992 67.7031 5.13747C67.2222 5.28502 66.7454 5.52478 66.2748 5.85676V4.56778C66.7413 4.26449 67.214 4.04112 67.699 3.89152C68.184 3.74193 68.7021 3.6702 69.2573 3.6702C69.8125 3.6702 70.2996 3.73783 70.7578 3.87513C71.216 4.01243 71.6082 4.2276 71.9405 4.52474C72.2707 4.82188 72.5308 5.201 72.7145 5.66208C72.9003 6.12521 72.9911 6.6867 72.9911 7.35066V12.8529H71.9157L71.5938 11.6438V11.6459ZM70.0581 11.6418C70.3946 11.5557 70.6835 11.4205 70.923 11.2319C71.1624 11.0455 71.3461 10.8077 71.474 10.5209C71.602 10.234 71.666 9.88764 71.666 9.48598V8.56997L68.7289 8.77489C68.4358 8.79333 68.1778 8.83637 67.9549 8.90809C67.732 8.97982 67.5421 9.07818 67.3873 9.20523C67.2325 9.33229 67.1149 9.48598 67.0385 9.66222C66.9601 9.8405 66.9229 10.0393 66.9229 10.2585C66.9229 10.4778 66.9683 10.6786 67.0571 10.8631C67.1459 11.0475 67.2759 11.2053 67.4472 11.3385C67.6185 11.4717 67.827 11.5762 68.0788 11.6541C68.3285 11.732 68.6133 11.7688 68.9291 11.7688C69.3461 11.7688 69.7238 11.7258 70.0623 11.6397L70.0581 11.6418Z" fill="#F1F6EB"/>
<path d="M134.061 3.65587C133.712 3.65587 133.373 3.69481 133.045 3.76653C134.24 4.10876 135.113 5.19896 135.113 6.49614C135.113 8.06382 133.831 9.3364 132.252 9.3364C130.948 9.3364 129.848 8.46957 129.503 7.28305C129.431 7.60683 129.392 7.94496 129.392 8.29128C129.392 10.8508 131.483 12.9267 134.061 12.9267C136.638 12.9267 138.729 10.8508 138.729 8.29128C138.729 5.73177 136.638 3.65587 134.061 3.65587Z" fill="#F1F6EB"/>
</svg>
