<svg width="212" height="60" viewBox="0 0 212 60" fill="none" xmlns="http://www.w3.org/2000/svg">
<path d="M1.62479 30.6707C2.70728 28.1908 4.20276 26.0362 6.10912 24.207C8.01548 22.3799 10.2472 20.9429 12.8064 19.8979C15.3656 18.853 18.1334 18.3315 21.1097 18.3315C24.0861 18.3315 26.8601 18.855 29.4339 19.8979C32.0056 20.9429 34.2394 22.3799 36.1312 24.207C38.025 26.0341 39.5205 28.1887 40.6155 30.6707C41.7126 33.1527 42.2612 35.8287 42.2612 38.7008C42.2612 41.5729 41.7126 44.2509 40.6155 46.7309C39.5184 49.2129 38.0229 51.3591 36.1312 53.1737C34.2373 54.9883 32.0056 56.4191 29.4339 57.462C26.8622 58.5069 24.0861 59.0284 21.1097 59.0284C18.1334 59.0284 15.3635 58.5049 12.8064 57.462C10.2472 56.417 8.01339 54.9883 6.10912 53.1737C4.20276 51.3591 2.70728 49.2108 1.62479 46.7309C0.540205 44.2509 0 41.5729 0 38.7008C0 35.8287 0.542291 33.1527 1.62479 30.6707ZM8.91234 43.7921C9.60481 45.3585 10.5517 46.7163 11.7531 47.8655C12.9545 49.0148 14.3582 49.9158 15.9642 50.5686C17.5702 51.2215 19.2868 51.5468 21.116 51.5468C22.9452 51.5468 24.668 51.2215 26.2865 50.5686C27.905 49.9158 29.315 49.0148 30.5164 47.8655C31.7178 46.7163 32.6647 45.3585 33.3571 43.7921C34.0496 42.2257 34.3958 40.5279 34.3958 38.7008C34.3958 36.8737 34.0496 35.1759 33.3571 33.6074C32.6647 32.0411 31.7178 30.677 30.5164 29.5152C29.315 28.3535 27.905 27.4462 26.2865 26.7933C24.668 26.1405 22.9431 25.8131 21.116 25.8131C19.2889 25.8131 17.5702 26.1405 15.9642 26.7933C14.3582 27.4462 12.9545 28.3535 11.7531 29.5152C10.5517 30.677 9.60481 32.0411 8.91234 33.6074C8.21988 35.1738 7.87365 36.8716 7.87365 38.7008C7.87365 40.53 8.21988 42.2257 8.91234 43.7921Z" fill="#F1F6EB"/>
<path d="M73.5493 26.1426C73.5493 26.5201 73.1696 26.7787 72.8172 26.6453C72.2832 26.4429 71.768 26.3303 71.134 26.1676C70.2204 25.9319 69.2672 25.8151 68.2744 25.8151C66.4202 25.8151 64.8997 26.1092 63.7108 26.6974C62.522 27.2856 61.5897 28.1345 60.9097 29.2441C60.2298 30.3537 59.7605 31.7052 59.4997 33.2987C59.239 34.8923 59.1076 36.6943 59.1076 38.705V57.633C59.1076 57.9313 58.8657 58.1732 58.5674 58.1732H51.7721C51.4738 58.1732 51.2319 57.9313 51.2319 57.633V19.4974C51.2319 19.1992 51.4738 18.9572 51.7721 18.9572H57.5016C57.7164 18.9572 57.9083 19.0845 57.9959 19.2805L59.6165 22.9681C59.7 23.1579 59.9503 23.1975 60.09 23.0432C60.6886 22.3737 61.3832 21.7751 61.9088 21.2495C62.522 20.6363 63.1686 20.1273 63.8485 19.7227C64.5264 19.3181 65.2585 19.0115 66.0427 18.8029C66.8269 18.5943 68.9502 18.4692 69.9159 18.5234C71.184 18.5943 72.4334 18.8029 73.1175 18.9406C73.3699 18.9906 73.5513 19.2117 73.5513 19.4703V26.1447L73.5493 26.1426Z" fill="#F1F6EB"/>
<path d="M82.3677 0H89.1631C89.4613 0 89.7033 0.241945 89.7033 0.540205V22.5051C89.7033 22.7679 90.0245 22.893 90.2038 22.699C90.8525 22.0024 91.5533 21.3955 92.3084 20.8782C93.2615 20.2254 94.2731 19.6977 95.3431 19.291C96.4131 18.8863 97.5373 18.586 98.7116 18.3899C99.8858 18.1939 101.102 18.0958 102.355 18.0958C105.227 18.0958 107.872 18.6194 110.287 19.6622C112.703 20.7072 114.786 22.1442 116.536 23.9713C118.286 25.7984 119.657 27.953 120.649 30.435C121.642 32.9171 122.139 35.5931 122.139 38.4651C122.139 41.3372 121.642 43.9756 120.649 46.4556C119.657 48.9376 118.28 51.0963 116.517 52.938C114.755 54.7797 112.665 56.2231 110.25 57.2659C107.835 58.3109 105.202 58.8323 102.357 58.8323C101.104 58.8323 99.9088 58.7343 98.7741 58.5382C97.6395 58.3422 96.5612 58.0418 95.5433 57.6372C94.5255 57.2326 93.5577 56.6965 92.6442 56.0312C91.9183 55.5035 91.2363 54.8903 90.5939 54.1895C90.4187 53.9976 90.0975 54.1186 90.0975 54.3793V57.6268C90.0975 57.925 89.8555 58.167 89.5573 58.167H82.3698C82.0716 58.167 81.8296 57.925 81.8296 57.6268V0.540205C81.8296 0.241945 82.0716 0 82.3698 0H82.3677ZM90.5834 43.8901C91.1716 45.4961 92.0059 46.8539 93.0905 47.9636C94.173 49.0732 95.4662 49.9158 96.9679 50.4894C98.4696 51.065 100.134 51.3508 101.961 51.3508C103.788 51.3508 105.461 51.0254 106.975 50.3705C108.489 49.7177 109.783 48.8166 110.853 47.6674C111.923 46.5181 112.759 45.1541 113.36 43.5731C113.96 41.9942 114.261 40.2776 114.261 38.4213C114.261 36.565 113.96 34.8964 113.36 33.33C112.759 31.7637 111.923 30.4058 110.853 29.2566C109.781 28.1074 108.489 27.2063 106.975 26.5535C105.461 25.9006 103.788 25.5732 101.961 25.5732C100.134 25.5732 98.4675 25.861 96.9679 26.4346C95.4662 27.0103 94.173 27.8446 93.0905 28.9417C92.0059 30.0387 91.1716 31.384 90.5834 32.9755C89.9953 34.569 89.7012 36.3836 89.7012 38.4192C89.7012 40.4549 89.9953 42.2778 90.5834 43.8839V43.8901Z" fill="#F1F6EB"/>
<path d="M138.157 19.4974V57.6288C138.157 57.9271 137.915 58.1691 137.617 58.1691H130.821C130.523 58.1691 130.281 57.9271 130.281 57.6288V19.4974C130.281 19.1992 130.523 18.9572 130.821 18.9572H137.617C137.915 18.9572 138.157 19.1992 138.157 19.4974Z" fill="#F1F6EB"/>
<path d="M148.227 48.4099C148.227 47.9719 148.725 47.7133 149.08 47.9719C150.755 49.1941 152.428 50.0743 154.102 50.6103C156.061 51.2361 158.124 51.551 160.291 51.551C161.726 51.551 162.967 51.4342 164.012 51.1985C165.057 50.9628 165.918 50.6375 166.598 50.2182C167.276 49.8011 167.779 49.3109 168.106 48.7499C168.431 48.1888 168.596 47.5819 168.596 46.929C168.596 45.7026 168.158 44.6952 167.284 43.9131C166.408 43.1288 165.032 42.5031 163.152 42.0338L159.667 41.1724C157.788 40.7031 156.149 40.1274 154.751 39.4496C153.354 38.7717 152.192 37.975 151.266 37.0593C150.338 36.1458 149.641 35.1071 149.17 33.9453C148.7 32.7836 148.465 31.4967 148.465 30.0867C148.465 28.4682 148.79 26.9477 149.445 25.5231C150.098 24.1007 151.051 22.8534 152.304 21.7813C153.558 20.7113 155.099 19.8624 156.926 19.2346C158.754 18.6089 160.843 18.294 163.194 18.294C165.073 18.294 166.784 18.4504 168.325 18.7633C169.775 19.0594 173.218 20.2859 174.791 21.1681C174.96 21.262 175.062 21.4434 175.062 21.6353V27.8633C175.062 28.2888 174.593 28.5391 174.234 28.3118C172.845 27.4337 171.41 26.81 169.931 26.4409C168.154 25.9966 166.235 25.7755 164.172 25.7755C162.84 25.7755 161.678 25.8735 160.687 26.0696C159.694 26.2657 158.879 26.5472 158.238 26.9122C157.598 27.2772 157.123 27.7424 156.81 28.3034C156.497 28.8645 156.34 29.5111 156.34 30.2431C156.34 31.1567 156.66 31.8951 157.3 32.4561C157.94 33.0172 158.925 33.4552 160.257 33.768L164.996 34.9048C166.955 35.3741 168.652 35.9768 170.087 36.7068C171.522 37.4389 172.711 38.2941 173.652 39.2723C174.593 40.2526 175.298 41.3622 175.767 42.6011C176.236 43.8421 176.472 45.1937 176.472 46.6558C176.472 48.3786 176.119 49.9992 175.414 51.5135C174.709 53.0277 173.698 54.3396 172.38 55.4493C171.062 56.5589 169.447 57.4349 167.543 58.0731C165.637 58.7134 163.482 59.0325 161.079 59.0325C158.545 59.0325 156.228 58.7906 154.127 58.3088C152.117 57.8478 150.231 57.0323 148.471 55.8664C148.321 55.7663 148.231 55.5973 148.231 55.4159V48.412L148.227 48.4099Z" fill="#F1F6EB"/>
<path d="M134.93 3.77518C134.457 3.70218 133.998 3.70635 133.556 3.76892C133.458 3.78352 133.443 3.91701 133.535 3.95664C134.663 4.44261 135.423 5.62523 135.264 6.96427C135.11 8.27202 134.052 9.32949 132.744 9.48383C131.405 9.64026 130.223 8.88314 129.737 7.75476C129.697 7.66299 129.564 7.67759 129.549 7.77562C129.487 8.21779 129.484 8.67666 129.555 9.15012C129.883 11.3005 131.685 12.9816 133.854 13.1443C136.747 13.3612 139.139 10.9668 138.922 8.07388C138.758 5.90471 137.079 4.10473 134.928 3.77727L134.93 3.77518Z" fill="#F1F6EB"/>
<path d="M31.4508 13.2382C30.5915 13.2382 29.8239 13.0484 29.1461 12.6688C28.4682 12.2891 27.9363 11.7656 27.5526 11.0982C27.1667 10.4328 26.9748 9.66947 26.9748 8.81014C26.9748 7.95082 27.1667 7.17493 27.5526 6.51375C27.9384 5.85257 28.4703 5.33531 29.1461 4.95988C29.8239 4.58653 30.5915 4.39881 31.4508 4.39881C32.1891 4.39881 32.8545 4.54273 33.451 4.82847C34.0454 5.11422 34.5147 5.54388 34.8547 6.11746L33.9787 6.71189C33.6804 6.2718 33.3113 5.94643 32.8712 5.73786C32.4311 5.52928 31.9514 5.42291 31.4341 5.42291C30.8167 5.42291 30.2619 5.56265 29.7655 5.84423C29.2691 6.1258 28.8791 6.52001 28.5933 7.02475C28.3076 7.53159 28.1637 8.12602 28.1637 8.81014C28.1637 9.49426 28.3076 10.0887 28.5933 10.5955C28.8791 11.1024 29.2712 11.4966 29.7655 11.7761C30.2598 12.0555 30.8167 12.1974 31.4341 12.1974C31.9514 12.1974 32.4311 12.0931 32.8712 11.8845C33.3113 11.6759 33.6804 11.3547 33.9787 10.9272L34.8547 11.5216C34.5126 12.0827 34.0454 12.5102 33.451 12.8022C32.8566 13.0942 32.1891 13.2402 31.4508 13.2402V13.2382Z" fill="#F1F6EB"/>
<path d="M36.4899 13.1547V0.89478H37.6621V13.1547H36.4899Z" fill="#F1F6EB"/>
<path d="M39.7958 3.12652L42.0588 1.07832H43.6294L40.9534 3.12652H39.7958ZM40.2734 13.1547V4.48016H41.4456V13.1547H40.2734Z" fill="#F1F6EB"/>
<path d="M48.485 4.39881C49.19 4.39881 49.8094 4.53439 50.3434 4.80345C50.8773 5.07251 51.2966 5.4834 51.599 6.03403C51.9014 6.58466 52.0537 7.27921 52.0537 8.11559V13.1547H50.8815V8.23031C50.8815 7.31676 50.6521 6.62429 50.1953 6.15709C49.7385 5.68988 49.0961 5.4542 48.2702 5.4542C47.6528 5.4542 47.1167 5.57725 46.66 5.82546C46.2032 6.07366 45.8507 6.43241 45.6025 6.89961C45.3543 7.3689 45.2312 7.93205 45.2312 8.59323V13.1526H44.0591V4.48016H45.1833V6.85998L45.0018 6.41363C45.2771 5.78583 45.7172 5.29359 46.3242 4.93485C46.929 4.5761 47.6507 4.39881 48.4892 4.39881H48.485Z" fill="#F1F6EB"/>
<path d="M55.1614 2.56545C54.9195 2.56545 54.7151 2.48202 54.5503 2.31725C54.3855 2.15248 54.3021 1.95433 54.3021 1.72282C54.3021 1.4913 54.3855 1.29524 54.5503 1.13673C54.7151 0.976124 54.9195 0.896866 55.1614 0.896866C55.4034 0.896866 55.6078 0.974038 55.7725 1.12838C55.9373 1.28273 56.0207 1.47461 56.0207 1.70613C56.0207 1.93765 55.9415 2.15248 55.7809 2.31725C55.6203 2.48202 55.4138 2.56545 55.1614 2.56545ZM54.5649 13.1547V4.48016H55.7371V13.1547H54.5649Z" fill="#F1F6EB"/>
<path d="M61.9505 13.2382C61.0912 13.2382 60.3236 13.0484 59.6457 12.6688C58.9679 12.2891 58.436 11.7656 58.0522 11.0982C57.6664 10.4328 57.4745 9.66947 57.4745 8.81014C57.4745 7.95082 57.6664 7.17493 58.0522 6.51375C58.4381 5.85257 58.97 5.33531 59.6457 4.95988C60.3236 4.58653 61.0912 4.39881 61.9505 4.39881C62.6888 4.39881 63.3542 4.54273 63.9507 4.82847C64.5451 5.11422 65.0144 5.54388 65.3544 6.11746L64.4784 6.71189C64.1801 6.2718 63.811 5.94643 63.3709 5.73786C62.9308 5.52928 62.4511 5.42291 61.9338 5.42291C61.3164 5.42291 60.7616 5.56265 60.2652 5.84423C59.7688 6.1258 59.3788 6.52001 59.093 7.02475C58.8073 7.53159 58.6634 8.12602 58.6634 8.81014C58.6634 9.49426 58.8073 10.0887 59.093 10.5955C59.3788 11.1024 59.7709 11.4966 60.2652 11.7761C60.7595 12.0555 61.3164 12.1974 61.9338 12.1974C62.4511 12.1974 62.9308 12.0931 63.3709 11.8845C63.811 11.6759 64.1801 11.3547 64.4784 10.9272L65.3544 11.5216C65.0123 12.0827 64.5451 12.5102 63.9507 12.8022C63.3563 13.0942 62.6888 13.2402 61.9505 13.2402V13.2382Z" fill="#F1F6EB"/>
<path d="M69.4362 13.2382C68.7854 13.2382 68.2223 13.1318 67.7426 12.917C67.2629 12.7021 66.8978 12.4039 66.6434 12.0243C66.3889 11.6447 66.2638 11.2067 66.2638 10.7102C66.2638 10.2576 66.3722 9.84884 66.585 9.47966C66.7998 9.11049 67.1523 8.81431 67.6425 8.58697C68.1326 8.36171 68.7917 8.24908 69.6176 8.24908H72.6086V9.12509H69.651C68.8146 9.12509 68.2327 9.27318 67.9073 9.57144C67.582 9.8697 67.4193 10.2389 67.4193 10.679C67.4193 11.1754 67.6112 11.5717 67.997 11.8678C68.3829 12.1661 68.9231 12.3142 69.6156 12.3142C70.308 12.3142 70.8461 12.1619 71.3259 11.8595C71.8056 11.5571 72.1539 11.1191 72.375 10.5455L72.6399 11.3547C72.4188 11.9283 72.0371 12.3851 71.4906 12.7272C70.9463 13.0692 70.26 13.2402 69.4341 13.2402L69.4362 13.2382ZM72.4271 13.1547V11.2379L72.3771 10.923V7.71722C72.3771 6.97887 72.1706 6.41155 71.7576 6.01526C71.3446 5.61897 70.7293 5.42082 69.9159 5.42082C69.3548 5.42082 68.8188 5.51468 68.3141 5.7024C67.8072 5.89011 67.3776 6.13832 67.0251 6.44492L66.4953 5.56891C66.9354 5.19556 67.4652 4.90565 68.0805 4.70125C68.6978 4.49684 69.3465 4.39464 70.0306 4.39464C71.1548 4.39464 72.0225 4.67205 72.6336 5.22894C73.2447 5.78583 73.5513 6.63055 73.5513 7.76519V13.1506H72.4271V13.1547Z" fill="#F1F6EB"/>
<path d="M187.793 45.3168C187.049 45.3168 186.394 45.1603 185.833 44.8475C185.27 44.5346 184.829 44.1029 184.512 43.5543C184.195 43.0058 184.035 42.3759 184.035 41.6688C184.035 40.9617 184.187 40.3339 184.492 39.7896C184.796 39.2452 185.213 38.8155 185.745 38.5027C186.277 38.1898 186.873 38.0334 187.537 38.0334C188.2 38.0334 188.805 38.1856 189.328 38.4901C189.85 38.7947 190.261 39.2201 190.561 39.7708C190.861 40.3193 191.012 40.9534 191.012 41.6709C191.012 41.7168 191.009 41.7647 191.005 41.8148C191.001 41.8649 190.999 41.917 190.999 41.9712H184.775V41.2496H190.482L190.1 41.5353C190.1 41.0181 189.99 40.5571 189.766 40.1525C189.543 39.7478 189.243 39.4329 188.861 39.2056C188.479 38.9782 188.039 38.8656 187.541 38.8656C187.042 38.8656 186.611 38.9782 186.221 39.2056C185.831 39.4329 185.526 39.7499 185.307 40.1587C185.088 40.5675 184.98 41.0347 184.98 41.5624V41.7126C184.98 42.257 185.101 42.7367 185.34 43.1497C185.58 43.5627 185.916 43.8859 186.348 44.1175C186.78 44.349 187.272 44.4658 187.827 44.4658C188.263 44.4658 188.669 44.3886 189.045 44.2343C189.42 44.0799 189.746 43.8442 190.019 43.5251L190.563 44.1508C190.246 44.5325 189.848 44.8224 189.372 45.0227C188.895 45.2229 188.371 45.323 187.8 45.323L187.793 45.3168Z" fill="#F1F6EB"/>
<path d="M192.766 47.9594C192.43 47.9594 192.109 47.9051 191.806 47.7967C191.502 47.6882 191.241 47.5235 191.024 47.3065L191.475 46.5849C191.656 46.758 191.854 46.8915 192.067 46.9874C192.28 47.0834 192.52 47.1313 192.782 47.1313C193.099 47.1313 193.375 47.0437 193.606 46.8665C193.838 46.6892 194.059 46.3784 194.267 45.9341L194.73 44.885L194.839 44.7348L197.78 38.1022H198.733L195.152 46.1114C194.952 46.5745 194.733 46.9415 194.491 47.2148C194.249 47.488 193.988 47.6799 193.708 47.7946C193.427 47.9072 193.114 47.9656 192.768 47.9656L192.766 47.9594ZM194.672 45.4523L191.377 38.098H192.384L195.298 44.6639L194.672 45.4544V45.4523Z" fill="#F1F6EB"/>
<path d="M202.859 45.3168C202.114 45.3168 201.459 45.1603 200.898 44.8475C200.335 44.5346 199.895 44.1029 199.578 43.5543C199.261 43.0058 199.1 42.3759 199.1 41.6688C199.1 40.9617 199.252 40.3339 199.557 39.7896C199.861 39.2452 200.278 38.8155 200.81 38.5027C201.342 38.1898 201.939 38.0334 202.602 38.0334C203.265 38.0334 203.87 38.1856 204.394 38.4901C204.915 38.7947 205.326 39.2201 205.626 39.7708C205.927 40.3193 206.077 40.9534 206.077 41.6709C206.077 41.7168 206.075 41.7647 206.071 41.8148C206.066 41.8649 206.064 41.917 206.064 41.9712H199.84V41.2496H205.547L205.165 41.5353C205.165 41.0181 205.055 40.5571 204.832 40.1525C204.608 39.7478 204.308 39.4329 203.926 39.2056C203.545 38.9782 203.105 38.8656 202.606 38.8656C202.108 38.8656 201.676 38.9782 201.286 39.2056C200.896 39.4329 200.591 39.7499 200.372 40.1587C200.153 40.5675 200.045 41.0347 200.045 41.5624V41.7126C200.045 42.257 200.166 42.7367 200.406 43.1497C200.646 43.5627 200.981 43.8859 201.413 44.1175C201.845 44.349 202.337 44.4658 202.892 44.4658C203.328 44.4658 203.735 44.3886 204.11 44.2343C204.485 44.0799 204.811 43.8442 205.084 43.5251L205.628 44.1508C205.311 44.5325 204.913 44.8224 204.437 45.0227C203.96 45.2229 203.436 45.323 202.865 45.323L202.859 45.3168Z" fill="#F1F6EB"/>
<path d="M187.727 58.2212C187.017 58.2212 186.385 58.0648 185.826 57.7519C185.267 57.439 184.829 57.0073 184.512 56.4587C184.195 55.9102 184.035 55.2803 184.035 54.5732C184.035 53.8662 184.193 53.2259 184.512 52.6794C184.829 52.135 185.267 51.7074 185.826 51.3988C186.385 51.0901 187.017 50.9357 187.727 50.9357C188.336 50.9357 188.884 51.0546 189.374 51.2903C189.864 51.526 190.25 51.8806 190.532 52.3519L189.81 52.8421C189.566 52.4792 189.262 52.2101 188.897 52.0391C188.534 51.866 188.137 51.7804 187.712 51.7804C187.203 51.7804 186.744 51.8972 186.335 52.1288C185.927 52.3603 185.605 52.6857 185.368 53.1028C185.132 53.5199 185.013 54.0101 185.013 54.5732C185.013 55.1364 185.13 55.6265 185.368 56.0437C185.603 56.4608 185.927 56.7862 186.335 57.0177C186.744 57.2492 187.203 57.366 187.712 57.366C188.137 57.366 188.534 57.2805 188.897 57.1074C189.26 56.9343 189.564 56.6715 189.81 56.3169L190.532 56.8071C190.25 57.2701 189.864 57.6226 189.374 57.8624C188.884 58.1023 188.333 58.2233 187.727 58.2233V58.2212Z" fill="#F1F6EB"/>
<path d="M194.167 58.2212C193.631 58.2212 193.166 58.1336 192.772 57.9563C192.378 57.779 192.075 57.535 191.867 57.22C191.658 56.9072 191.554 56.5463 191.554 56.1375C191.554 55.7663 191.641 55.4263 191.819 55.1239C191.996 54.8194 192.286 54.5753 192.691 54.3876C193.095 54.202 193.638 54.1081 194.317 54.1081H196.783V54.8298H194.345C193.654 54.8298 193.174 54.9528 192.907 55.1969C192.641 55.443 192.505 55.7454 192.505 56.1104C192.505 56.5192 192.663 56.8467 192.983 57.0907C193.3 57.3368 193.746 57.4578 194.317 57.4578C194.889 57.4578 195.333 57.3327 195.727 57.0824C196.122 56.8321 196.412 56.4713 196.593 55.9999L196.81 56.6673C196.628 57.1387 196.313 57.5162 195.863 57.7978C195.412 58.0794 194.847 58.2191 194.167 58.2191V58.2212ZM196.633 58.1544V56.5735L196.591 56.3148V53.6722C196.591 53.0632 196.42 52.596 196.08 52.2685C195.74 51.941 195.233 51.7784 194.561 51.7784C194.098 51.7784 193.658 51.8555 193.241 52.0099C192.824 52.1642 192.469 52.3686 192.18 52.6231L191.744 51.9014C192.107 51.5927 192.542 51.355 193.051 51.186C193.56 51.0171 194.096 50.9336 194.66 50.9336C195.586 50.9336 196.301 51.1631 196.806 51.6219C197.31 52.0808 197.561 52.7774 197.561 53.7118V58.1524H196.635L196.633 58.1544Z" fill="#F1F6EB"/>
<path d="M199.916 58.1544V51.0045H200.842V52.9526L200.746 52.6127C200.946 52.0683 201.282 51.6532 201.753 51.3675C202.224 51.0817 202.811 50.9378 203.509 50.9378V51.8785C203.474 51.8785 203.436 51.8785 203.401 51.8722C203.365 51.868 203.328 51.866 203.292 51.866C202.539 51.866 201.949 52.0954 201.522 52.5543C201.094 53.0131 200.881 53.6639 200.881 54.5086V58.1586H199.913L199.916 58.1544Z" fill="#F1F6EB"/>
<path d="M208.142 58.2212C207.397 58.2212 206.742 58.0648 206.181 57.7519C205.618 57.439 205.178 57.0073 204.861 56.4587C204.544 55.9102 204.383 55.2803 204.383 54.5732C204.383 53.8662 204.535 53.2384 204.84 52.694C205.144 52.1496 205.562 51.72 206.094 51.4071C206.625 51.0942 207.222 50.9378 207.885 50.9378C208.548 50.9378 209.153 51.0901 209.677 51.3946C210.198 51.6991 210.609 52.1246 210.909 52.6752C211.21 53.2238 211.36 53.8578 211.36 54.5753C211.36 54.6212 211.358 54.6692 211.354 54.7192C211.35 54.7693 211.347 54.8214 211.347 54.8757H205.124V54.154H210.83L210.449 54.4398C210.449 53.9225 210.338 53.4615 210.115 53.0569C209.892 52.6523 209.591 52.3373 209.21 52.11C208.828 51.8826 208.388 51.77 207.889 51.77C207.391 51.77 206.959 51.8826 206.569 52.11C206.179 52.3373 205.875 52.6544 205.656 53.0632C205.437 53.472 205.328 53.9392 205.328 54.4669V54.617C205.328 55.1614 205.449 55.6411 205.689 56.0541C205.929 56.4671 206.265 56.7904 206.696 57.0219C207.128 57.2534 207.62 57.3702 208.175 57.3702C208.611 57.3702 209.018 57.293 209.393 57.1387C209.769 56.9844 210.094 56.7487 210.367 56.4295L210.912 57.0553C210.595 57.437 210.196 57.7269 209.721 57.9271C209.243 58.1273 208.719 58.2275 208.148 58.2275L208.142 58.2212Z" fill="#F1F6EB"/>
</svg>
