<svg width="53" height="32" viewBox="0 0 53 32" fill="none" xmlns="http://www.w3.org/2000/svg">
<path d="M38.5951 21.2697C37.4591 20.626 38.6496 21.3016 31.7497 17.3837C31.5415 17.2677 31.2944 17.2362 31.0623 17.296C30.8302 17.3559 30.632 17.5022 30.5109 17.703C30.3898 17.9039 30.3557 18.143 30.416 18.3681C30.4763 18.5932 30.6261 18.7861 30.8327 18.9047C38.3551 23.1671 38.1094 23.1057 39.058 23.3445C39.1415 23.578 39.1688 23.8269 39.1377 24.0721C39.1067 24.3174 39.0181 24.5525 38.8788 24.7595C38.7395 24.9665 38.5532 25.1399 38.3341 25.2665C38.1149 25.3931 37.8688 25.4695 37.6146 25.4898C30.8235 21.9696 31.9496 22.5535 30.9326 22.0258C30.7199 21.92 30.4727 21.8995 30.2445 21.9689C30.0164 22.0382 29.8256 22.1918 29.7134 22.3963C29.6012 22.6008 29.5767 22.8399 29.6452 23.0618C29.7137 23.2837 29.8696 23.4706 30.0792 23.582L36.1438 26.7207C36.1186 26.9737 36.0384 27.2187 35.9086 27.4396C35.7788 27.6605 35.6022 27.8523 35.3905 28.0026C35.1788 28.1528 34.9367 28.258 34.6801 28.3114C34.4234 28.3647 34.1581 28.3649 33.9013 28.312L28.79 26.114C28.5703 26.0231 28.3225 26.0196 28.1001 26.1044C27.8778 26.1892 27.6989 26.3553 27.6022 26.5669C27.5054 26.7785 27.4987 27.0185 27.5834 27.2349C27.6681 27.4513 27.8374 27.6266 28.0547 27.723L33.0662 29.8857C31.4359 32.0218 28.1386 31.3661 25.549 30.4396C25.9766 30.0461 26.3073 29.5643 26.5163 29.0301C26.7253 28.4958 26.8074 27.9228 26.7564 27.3537C26.6785 26.6275 26.3692 25.9429 25.8714 25.3946C25.3736 24.8464 24.712 24.4618 23.9783 24.2941C23.9964 23.8092 23.9106 23.3259 23.7263 22.8746C23.5421 22.4233 23.2634 22.0139 22.9078 21.672C22.5522 21.3301 22.1274 21.0632 21.6601 20.888C21.1928 20.7129 20.6931 20.6333 20.1925 20.6542C20.264 19.9767 20.1313 19.2936 19.8105 18.6875C19.4897 18.0814 18.9945 17.5783 18.3848 17.2389C17.775 16.8995 17.0768 16.7384 16.3746 16.775C15.6723 16.8116 14.996 17.0444 14.4274 17.4452C14.1865 16.8844 13.7999 16.3935 13.3053 16.0201C12.8106 15.6467 12.2247 15.4035 11.6043 15.3141C10.9839 15.2248 10.3502 15.2923 9.76476 15.5101C9.17928 15.7279 8.66191 16.0886 8.26289 16.5572L7.54569 17.4012C7.12805 16.8825 6.71046 16.3462 6.29281 15.7747C6.43367 15.6213 13.009 3.9802 13.111 3.80019C13.9008 4.30134 14.6907 4.80248 15.4805 5.29482C16.7243 5.49702 18.0861 5.76957 19.5296 6.12127L15.5894 11.3876C15.4014 11.6395 15.2859 11.9353 15.2545 12.2447C15.2232 12.554 15.2772 12.8659 15.4111 13.1484C15.545 13.4309 15.7539 13.674 16.0165 13.8527C16.2791 14.0315 16.586 14.1395 16.9058 14.1658C18.4984 14.319 20.1051 14.0839 21.5798 13.4819C23.0545 12.88 24.3503 11.9303 25.3491 10.7194C26.1928 10.9135 27.0706 10.9225 27.9184 10.7458L27.991 10.7282C30.8993 12.1849 39.3906 16.6636 41.2278 19.2915C42.4795 21.0028 40.5935 22.3987 38.5951 21.2697Z" fill="#1E9664"/>
<path d="M52.5568 15.6416L50.5686 16.6966C50.3759 16.7989 50.1492 16.823 49.9381 16.7636C49.7271 16.7043 49.549 16.5664 49.4428 16.38L42.5702 4.33516C42.5185 4.24403 42.486 4.14391 42.4745 4.04057C42.463 3.93722 42.4727 3.83269 42.5031 3.733C42.5335 3.63331 42.5839 3.54042 42.6515 3.45968C42.7191 3.37895 42.8026 3.31196 42.897 3.26258L44.8943 2.19875C45.0886 2.09922 45.3154 2.07753 45.5259 2.13838C45.7365 2.19922 45.914 2.33772 46.0201 2.52404L52.8836 14.5601C52.9356 14.6519 52.9684 14.7527 52.9801 14.8567C52.9918 14.9608 52.9822 15.066 52.9518 15.1665C52.9215 15.2669 52.871 15.3606 52.8032 15.4421C52.7354 15.5236 52.6517 15.5914 52.5568 15.6416Z" fill="#1E9664"/>
<path d="M41.1734 5.55857L47.3833 16.4605C46.0669 17.41 44.5326 18.465 43.2434 19.2123C41.7648 15.795 29.4274 8.96103 27.9275 8.96103H27.9185V8.95222C27.0773 9.22349 26.1642 9.19857 25.3401 8.88187C25.1347 8.79201 24.9021 8.77914 24.6875 8.84574C24.4728 8.91234 24.2913 9.05368 24.178 9.24241C23.4862 10.2261 22.5578 11.0321 21.4729 11.5911C20.3879 12.1502 19.1789 12.4454 17.95 12.4514C17.8644 12.4537 17.78 12.433 17.7059 12.3915C17.6319 12.35 17.5712 12.2893 17.5307 12.2164C17.4902 12.1434 17.4715 12.061 17.4766 11.9783C17.4817 11.8956 17.5104 11.8159 17.5596 11.7481C21.9717 5.84535 21.2159 6.85574 21.9446 5.88391C22.0372 5.75799 22.1547 5.65116 22.2903 5.56965C22.4259 5.48814 22.5769 5.43359 22.7345 5.40917C28.6901 4.50358 32.9481 4.52998 35.4629 5.52347C36.814 6.12306 38.3242 6.30124 39.7844 6.03336C40.2669 5.93465 40.7339 5.77502 41.1734 5.55857Z" fill="#1E9664"/>
<path d="M24.9588 27.7229C24.9588 28.5823 24.4276 28.9616 23.606 29.956C23.4054 30.1964 23.1428 30.3812 22.8448 30.4917C22.5468 30.6023 22.2239 30.6347 21.9089 30.5856C21.5938 30.5365 21.2977 30.4078 21.0505 30.2123C20.8033 30.0169 20.6137 29.7616 20.5011 29.4725C20.7906 29.2121 23.1915 26.3941 23.4517 25.9909C23.8741 26.0598 24.2575 26.2718 24.5335 26.589C24.8095 26.9062 24.9602 27.3081 24.9588 27.7229Z" fill="#1E9664"/>
<path d="M18.9395 23.0544L16.688 25.7184L16.6426 25.7711C16.341 26.1318 16.1988 26.5933 16.2472 27.0551C16.2955 27.5169 16.5304 27.9414 16.9007 28.2361C17.2709 28.5308 17.7465 28.6718 18.2237 28.6284C18.7008 28.585 19.1409 28.3606 19.448 28.0042L21.7539 25.2788C23.3379 23.3767 20.3911 21.3275 18.9395 23.0544Z" fill="#1E9664"/>
<path d="M15.1718 19.1684C14.2916 20.214 14.9747 19.4058 11.7219 23.2478C11.4213 23.6098 11.2805 24.072 11.3301 24.534C11.3797 24.996 11.6157 25.4203 11.9867 25.7147C12.3577 26.0091 12.8337 26.1497 13.3112 26.1059C13.7887 26.0621 14.229 25.8375 14.5363 25.481C15.4395 24.4198 17.0533 22.5263 17.9863 21.4016C18.2862 21.0395 18.4265 20.5775 18.3767 20.1159C18.3269 19.6543 18.091 19.2303 17.7203 18.9362C17.3496 18.642 16.8739 18.5014 16.3968 18.5449C15.9196 18.5883 15.4794 18.8124 15.1718 19.1684Z" fill="#1E9664"/>
<path d="M12.8386 19.1596L10.2693 22.2016C9.89543 22.3549 9.47927 22.3825 9.08725 22.2801C8.69523 22.1776 8.34995 21.951 8.10649 21.6363C7.86302 21.3216 7.73541 20.937 7.74402 20.5439C7.75263 20.1507 7.89695 19.7717 8.15397 19.4673C8.7748 18.7325 8.50638 19.05 9.67011 17.6737C9.92872 17.3711 10.2847 17.1613 10.681 17.0778C11.0773 16.9943 11.4911 17.042 11.8562 17.2132C12.2212 17.3843 12.5164 17.6692 12.6946 18.022C12.8727 18.3749 12.9234 18.7755 12.8386 19.1596Z" fill="#1E9664"/>
<path d="M11.4655 2.81656C10.8448 3.91549 4.97678 14.2115 4.48918 15.0634C4.37442 15.2635 4.18291 15.4117 3.95612 15.476C3.72933 15.5403 3.48551 15.5155 3.27747 15.4069L1.31735 14.3678C1.21508 14.3135 1.12492 14.2401 1.05205 14.1518C0.979176 14.0636 0.925036 13.9623 0.892741 13.8538C0.860445 13.7452 0.850633 13.6316 0.863868 13.5193C0.877102 13.4071 0.913123 13.2985 0.969857 13.1998L7.94615 0.952919C8.06096 0.752898 8.25312 0.605238 8.48036 0.542422C8.7076 0.479606 8.9513 0.50678 9.15785 0.617966L11.1091 1.64854C11.3161 1.75783 11.4699 1.94219 11.5367 2.16117C11.6035 2.38015 11.5779 2.61586 11.4655 2.81656Z" fill="#1E9664"/>
</svg>
