<svg width="32" height="42" viewBox="0 0 32 42" fill="none" xmlns="http://www.w3.org/2000/svg">
<path d="M20.7586 3.13065H18.535L18.255 2.34472C17.9195 1.40318 17.0217 0.770508 16.0198 0.770508C15.0178 0.770508 14.1201 1.40318 13.7846 2.34472L13.5046 3.13065H11.281C9.97236 3.13065 8.91158 4.18729 8.91158 5.4908V6.67087C8.91158 7.32258 9.44201 7.85094 10.0963 7.85094H21.9433C22.5975 7.85094 23.128 7.32258 23.128 6.67087V5.4908C23.128 4.18729 22.0672 3.13065 20.7586 3.13065Z" fill="#1E9664"/>
<path d="M21.8843 19.7104C18.6531 16.4919 13.3876 16.4907 10.1553 19.7104C6.92279 22.9314 6.92279 28.1726 10.1553 31.3936C13.3878 34.6135 18.6495 34.6135 21.8843 31.3936C25.1168 28.1726 25.1168 22.9315 21.8843 19.7104ZM21.5962 24.0262L15.6727 29.9265C15.4412 30.1571 15.1381 30.2723 14.8351 30.2723C14.532 30.2723 14.2288 30.1571 13.9975 29.9265L10.4434 26.3863C9.98065 25.9254 9.98065 25.1786 10.4434 24.7176C10.9061 24.2567 11.6559 24.2567 12.1186 24.7176L14.8351 27.4235L19.921 22.3575C20.3837 21.8965 21.1335 21.8965 21.5962 22.3575C22.059 22.8184 22.059 23.5652 21.5962 24.0262Z" fill="#1E9664"/>
<path d="M27.8668 5.4908H25.4974V6.67087C25.4974 8.62302 23.9031 10.2111 21.9433 10.2111H10.0963C8.13647 10.2111 6.54218 8.62302 6.54218 6.67087V5.4908H4.17278C2.21297 5.4908 0.618683 7.07886 0.618683 9.03101V37.3527C0.618683 39.3049 2.21297 41.0503 4.17278 41.0503H27.8668C29.8266 41.0503 31.4209 39.3049 31.4209 37.3527V9.03101C31.4209 7.07886 29.8266 5.4908 27.8668 5.4908ZM23.5595 33.0623C19.4016 37.2016 12.6382 37.2019 8.48003 33.0623C4.32316 28.9206 4.32316 22.1835 8.48003 18.0417C12.638 13.9023 19.4015 13.9023 23.5595 18.0417C27.7164 22.1835 27.7164 28.9205 23.5595 33.0623Z" fill="#1E9664"/>
</svg>
