<svg width="1920" height="829" viewBox="0 0 1920 829" fill="none" xmlns="http://www.w3.org/2000/svg">
<g clip-path="url(#clip0_46_3)">
<rect width="1920" height="829" fill="#1E9664"/>
<g clip-path="url(#clip1_46_3)">
<path d="M52.3899 530.728C62.0606 558.513 88.4843 578.46 119.56 578.46C158.852 578.46 190.686 546.603 190.686 507.334C190.686 476.238 170.74 449.835 142.956 440.165C149.034 439.029 155.263 438.358 161.632 438.229H163.86C226.49 438.229 277.286 489.026 277.286 551.656C277.286 614.286 226.49 665.083 163.86 665.083C101.23 665.083 50.4328 614.309 50.4328 551.656C50.4328 544.504 51.1209 537.509 52.3899 530.728ZM-347.769 551.656C-347.769 279.589 -118.741 59 163.882 59C446.483 59 675.534 279.589 675.534 551.656C675.534 823.723 446.505 1044.31 163.882 1044.31C-118.741 1044.31 -347.769 823.723 -347.769 551.656ZM-158.77 551.633C-158.77 723.294 -14.2885 862.371 163.882 862.371C342.053 862.371 486.535 723.294 486.535 551.633C486.535 379.973 342.053 240.895 163.882 240.895C-14.2885 240.895 -158.77 379.973 -158.77 551.633Z" stroke="#F1F6EB" stroke-opacity="0.2" stroke-width="2"/>
</g>
</g>
<defs>
<clipPath id="clip0_46_3">
<rect width="1920" height="829" fill="white"/>
</clipPath>
<clipPath id="clip1_46_3">
<rect width="1143.69" height="1101.29" fill="white" transform="translate(-340 -42)"/>
</clipPath>
</defs>
</svg>
